<?xml version="1.0" encoding="UTF-8"?>
<svg width="155px" height="56px" viewBox="0 0 155 56" version="1.1" xmlns="http://www.w3.org/2000/svg" xmlns:xlink="http://www.w3.org/1999/xlink">
    <!-- Generator: Sketch 52.2 (67145) - http://www.bohemiancoding.com/sketch -->
    <title>woopcash_logo</title>
    <desc>Created with Sketch.</desc>
    <defs>
        <radialGradient cx="29.8647681%" cy="17.7749825%" fx="29.8647681%" fy="17.7749825%" r="65.0765544%" gradientTransform="translate(0.298648,0.177750),rotate(35.526691),scale(1.000000,0.924489),translate(-0.298648,-0.177750)" id="radialGradient-1">
            <stop stop-color="#00FF18" offset="0%"></stop>
            <stop stop-color="#1DB15C" offset="100%"></stop>
        </radialGradient>
        <circle id="path-2" cx="17.2070312" cy="20" r="9"></circle>
        <filter x="-172.2%" y="-161.1%" width="444.4%" height="444.4%" filterUnits="objectBoundingBox" id="filter-3">
            <feOffset dx="0" dy="2" in="SourceAlpha" result="shadowOffsetOuter1"></feOffset>
            <feGaussianBlur stdDeviation="7.5" in="shadowOffsetOuter1" result="shadowBlurOuter1"></feGaussianBlur>
            <feColorMatrix values="0 0 0 0 0.0941176471   0 0 0 0 0.749019608   0 0 0 0 0.31372549  0 0 0 0.6 0" type="matrix" in="shadowBlurOuter1" result="shadowMatrixOuter1"></feColorMatrix>
            <feOffset dx="0" dy="2" in="SourceAlpha" result="shadowOffsetOuter2"></feOffset>
            <feGaussianBlur stdDeviation="10" in="shadowOffsetOuter2" result="shadowBlurOuter2"></feGaussianBlur>
            <feColorMatrix values="0 0 0 0 0   0 0 0 0 0   0 0 0 0 0  0 0 0 0.5 0" type="matrix" in="shadowBlurOuter2" result="shadowMatrixOuter2"></feColorMatrix>
            <feMerge>
                <feMergeNode in="shadowMatrixOuter1"></feMergeNode>
                <feMergeNode in="shadowMatrixOuter2"></feMergeNode>
            </feMerge>
        </filter>
        <radialGradient cx="29.8647681%" cy="17.7749825%" fx="29.8647681%" fy="17.7749825%" r="52.6649377%" gradientTransform="translate(0.298648,0.177750),rotate(53.010857),scale(1.000000,1.001022),translate(-0.298648,-0.177750)" id="radialGradient-4">
            <stop stop-color="#00FF18" offset="0%"></stop>
            <stop stop-color="#1C884A" offset="100%"></stop>
        </radialGradient>
    </defs>
    <g id="Affiliate" stroke="none" stroke-width="1" fill="none" fill-rule="evenodd">
        <g id="Header" transform="translate(-9.000000, -8.000000)">
            <g id="woopcash_logo" transform="translate(20.000000, 14.000000)">
                <g id="badge" transform="translate(107.000000, 11.000000)">
                    <rect id="Rectangle" fill="#FFFFFF" x="0" y="0" width="37" height="15" rx="3"></rect>
                    <path d="M8.367,11.154 C7.20832754,11.154 6.25133711,10.7690038 5.496,9.999 C4.74066289,9.22899615 4.363,8.27933898 4.363,7.15 C4.363,6.01332765 4.74066289,5.06183716 5.496,4.2955 C6.25133711,3.52916284 7.20832754,3.146 8.367,3.146 C9.06367015,3.146 9.70716372,3.30916503 10.2975,3.6355 C10.8878363,3.96183496 11.3479984,4.40366388 11.678,4.961 L10.369,5.72 C10.1783324,5.37533161 9.90700176,5.1058343 9.555,4.9115 C9.20299824,4.7171657 8.8070022,4.62 8.367,4.62 C7.61899626,4.62 7.01583562,4.85466432 6.5575,5.324 C6.09916437,5.79333568 5.87,6.40199626 5.87,7.15 C5.87,7.89067037 6.09916437,8.49566432 6.5575,8.965 C7.01583562,9.43433568 7.61899626,9.669 8.367,9.669 C8.8070022,9.669 9.20483155,9.5718343 9.5605,9.3775 C9.91616845,9.1831657 10.1856657,8.91733502 10.369,8.58 L11.678,9.339 C11.3479984,9.89633612 10.8896696,10.338165 10.303,10.6645 C9.7163304,10.990835 9.07100352,11.154 8.367,11.154 Z M17.53,11 L17.068,9.614 L13.999,9.614 L13.537,11 L11.898,11 L14.593,3.3 L16.474,3.3 L19.18,11 L17.53,11 Z M14.483,8.195 L16.595,8.195 L15.539,5.049 L14.483,8.195 Z M22.381,11.154 C21.6183295,11.154 20.9766693,10.9835017 20.456,10.6425 C19.9353307,10.3014983 19.5686677,9.8376696 19.356,9.251 L20.654,8.492 C20.9546682,9.27667059 21.5449956,9.669 22.425,9.669 C22.8503355,9.669 23.161999,9.59200077 23.36,9.438 C23.558001,9.28399923 23.657,9.08966784 23.657,8.855 C23.657,8.58366531 23.5360012,8.37283409 23.294,8.2225 C23.0519988,8.07216592 22.6193364,7.90900088 21.996,7.733 C21.6513316,7.63033282 21.3598345,7.52766718 21.1215,7.425 C20.8831655,7.32233282 20.6448345,7.1848342 20.4065,7.0125 C20.1681655,6.84016581 19.9866673,6.62200132 19.862,6.358 C19.7373327,6.09399868 19.675,5.78600176 19.675,5.434 C19.675,4.73732985 19.9224975,4.18183541 20.4175,3.7675 C20.9125025,3.3531646 21.5083298,3.146 22.205,3.146 C22.8283364,3.146 23.3764976,3.29816514 23.8495,3.6025 C24.3225024,3.90683485 24.6909987,4.33033062 24.955,4.873 L23.679,5.61 C23.3709985,4.9499967 22.87967,4.62 22.205,4.62 C21.8896651,4.62 21.6421676,4.69149929 21.4625,4.8345 C21.2828324,4.97750072 21.193,5.16266553 21.193,5.39 C21.193,5.63200121 21.2938323,5.82816591 21.4955,5.9785 C21.6971677,6.12883408 22.0839971,6.29199912 22.656,6.468 C22.8906678,6.5413337 23.0684994,6.59816647 23.1895,6.6385 C23.3105006,6.67883354 23.475499,6.74116624 23.6845,6.8255 C23.893501,6.90983376 24.0548328,6.9886663 24.1685,7.062 C24.2821672,7.1353337 24.4123326,7.23433271 24.559,7.359 C24.7056674,7.48366729 24.8174996,7.61199934 24.8945,7.744 C24.9715004,7.87600066 25.0374997,8.03549907 25.0925,8.2225 C25.1475003,8.40950093 25.175,8.6129989 25.175,8.833 C25.175,9.54433689 24.9165026,10.1089979 24.3995,10.527 C23.8824974,10.9450021 23.2096708,11.154 22.381,11.154 Z M30.488,3.3 L31.995,3.3 L31.995,11 L30.488,11 L30.488,7.81 L27.628,7.81 L27.628,11 L26.11,11 L26.11,3.3 L27.628,3.3 L27.628,6.358 L30.488,6.358 L30.488,3.3 Z" id="CASH" fill="#22272D"></path>
                </g>
                <path d="M48.02,25 L44.1,11 L47.96,11 L50.12,19.82 L52.62,11 L55.44,11 L57.94,19.82 L60.12,11 L63.96,11 L60.06,25 L56.28,25 L54.04,17.1 L51.8,25 L48.02,25 Z M75.9536842,23.2 C74.5403438,24.600007 72.8070278,25.3 70.7536842,25.3 C68.7003406,25.3 66.9636913,24.5966737 65.5436842,23.19 C64.1236771,21.7833263 63.4136842,20.0533436 63.4136842,18 C63.4136842,15.9466564 64.1236771,14.2166737 65.5436842,12.81 C66.9636913,11.4033263 68.7003406,10.7 70.7536842,10.7 C72.8070278,10.7 74.5436771,11.4033263 75.9636842,12.81 C77.3836913,14.2166737 78.0936842,15.9466564 78.0936842,18 C78.0936842,20.0533436 77.380358,21.7866596 75.9536842,23.2 Z M68.0536842,20.74 C68.7736878,21.4466702 69.6736788,21.8 70.7536842,21.8 C71.8336896,21.8 72.7336806,21.4433369 73.4536842,20.73 C74.1736878,20.0166631 74.5336842,19.1066722 74.5336842,18 C74.5336842,16.8933278 74.1736878,15.9833369 73.4536842,15.27 C72.7336806,14.5566631 71.8336896,14.2 70.7536842,14.2 C69.6736788,14.2 68.7736878,14.5566631 68.0536842,15.27 C67.3336806,15.9833369 66.9736842,16.8933278 66.9736842,18 C66.9736842,19.1066722 67.3336806,20.0199964 68.0536842,20.74 Z M91.2273684,23.2 C89.814028,24.600007 88.080712,25.3 86.0273684,25.3 C83.9740248,25.3 82.2373755,24.5966737 80.8173684,23.19 C79.3973613,21.7833263 78.6873684,20.0533436 78.6873684,18 C78.6873684,15.9466564 79.3973613,14.2166737 80.8173684,12.81 C82.2373755,11.4033263 83.9740248,10.7 86.0273684,10.7 C88.080712,10.7 89.8173613,11.4033263 91.2373684,12.81 C92.6573755,14.2166737 93.3673684,15.9466564 93.3673684,18 C93.3673684,20.0533436 92.6540422,21.7866596 91.2273684,23.2 Z M83.3273684,20.74 C84.047372,21.4466702 84.947363,21.8 86.0273684,21.8 C87.1073738,21.8 88.0073648,21.4433369 88.7273684,20.73 C89.447372,20.0166631 89.8073684,19.1066722 89.8073684,18 C89.8073684,16.8933278 89.447372,15.9833369 88.7273684,15.27 C88.0073648,14.5566631 87.1073738,14.2 86.0273684,14.2 C84.947363,14.2 84.047372,14.5566631 83.3273684,15.27 C82.6073648,15.9833369 82.2473684,16.8933278 82.2473684,18 C82.2473684,19.1066722 82.6073648,20.0199964 83.3273684,20.74 Z M99.9410526,11 C101.354393,11 102.541048,11.4599954 103.501053,12.38 C104.461057,13.3000046 104.941053,14.4733262 104.941053,15.9 C104.941053,17.3266738 104.461057,18.4999954 103.501053,19.42 C102.541048,20.3400046 101.354393,20.8 99.9410526,20.8 L98.0810526,20.8 L98.0810526,25 L94.5010526,25 L94.5010526,11 L99.9410526,11 Z M99.9410526,17.4 C100.341055,17.4 100.677718,17.2600014 100.951053,16.98 C101.224387,16.6999986 101.361053,16.3400022 101.361053,15.9 C101.361053,15.4599978 101.224387,15.1033347 100.951053,14.83 C100.677718,14.5566653 100.341055,14.42 99.9410526,14.42 L98.0810526,14.42 L98.0810526,17.4 L99.9410526,17.4 Z" id="WOOP" fill="#FFFFFF"></path>
                <g id="Oval-1">
                    <use fill="black" fill-opacity="1" filter="url(#filter-3)" xlink:href="#path-2"></use>
                    <use fill="url(#radialGradient-1)" fill-rule="evenodd" xlink:href="#path-2"></use>
                </g>
                <circle id="Oval-1" fill="url(#radialGradient-4)" cx="17.7070312" cy="17.5" r="17.5"></circle>
                <g id="chart-up" transform="translate(6.207031, 11.000000)" fill="#FFFFFF">
                    <g id="Capa_1">
                        <g id="Group">
                            <polygon id="Shape" points="21 -8.8817842e-16 12.3109799 1.51830283 14.6423438 3.8344426 10.7383142 7.71464226 6.57971028 3.58153078 1.77635684e-15 11.1864999 6.57971028 8.86688852 10.7383142 13 17.3036493 6.47836938 19.4717173 8.63227953"></polygon>
                        </g>
                    </g>
                </g>
            </g>
        </g>
    </g>
</svg>